<mxfile host="app.diagrams.net" modified="2024-04-03T17:36:07.928Z" agent="Mozilla/5.0 (Windows NT 10.0; Win64; x64; rv:124.0) Gecko/20100101 Firefox/124.0" etag="2ZUyH3Rs6Pzbkaj6VuaI" version="24.2.2" type="device">
  <diagram name="Page-1" id="42789a77-a242-8287-6e28-9cd8cfd52e62">
    <mxGraphModel dx="1050" dy="531" grid="1" gridSize="10" guides="1" tooltips="1" connect="1" arrows="1" fold="1" page="1" pageScale="1" pageWidth="1100" pageHeight="850" background="none" math="0" shadow="0">
      <root>
        <mxCell id="0" />
        <mxCell id="1" parent="0" />
        <mxCell id="YL1zyzh9gBuxgRDL5kGR-44" value="" style="rounded=0;whiteSpace=wrap;html=1;strokeWidth=1;" vertex="1" parent="1">
          <mxGeometry x="240" y="140" width="480" height="290" as="geometry" />
        </mxCell>
        <mxCell id="YL1zyzh9gBuxgRDL5kGR-12" value="" style="rounded=0;whiteSpace=wrap;html=1;strokeWidth=1;strokeColor=default;fontFamily=Times New Roman;fillColor=default;gradientColor=none;" vertex="1" parent="1">
          <mxGeometry x="340" y="160" width="360" height="200" as="geometry" />
        </mxCell>
        <mxCell id="YL1zyzh9gBuxgRDL5kGR-11" value="" style="rounded=0;whiteSpace=wrap;html=1;strokeWidth=1;fontFamily=Times New Roman;labelBackgroundColor=default;strokeColor=default;fillColor=default;" vertex="1" parent="1">
          <mxGeometry x="360" y="180" width="320" height="80" as="geometry" />
        </mxCell>
        <mxCell id="YL1zyzh9gBuxgRDL5kGR-22" style="edgeStyle=orthogonalEdgeStyle;rounded=0;orthogonalLoop=1;jettySize=auto;html=1;exitX=1;exitY=0.5;exitDx=0;exitDy=0;entryX=0;entryY=0.5;entryDx=0;entryDy=0;strokeColor=default;" edge="1" parent="1" source="1ea317790d2ca983-2" target="1ea317790d2ca983-7">
          <mxGeometry relative="1" as="geometry" />
        </mxCell>
        <mxCell id="1ea317790d2ca983-2" value="COLLECT DATA" style="ellipse;whiteSpace=wrap;html=1;rounded=0;shadow=0;comic=0;labelBackgroundColor=none;strokeWidth=1;fontFamily=Times New Roman;fontSize=12;align=center;fontStyle=1" parent="1" vertex="1">
          <mxGeometry x="380" y="195" width="75" height="50" as="geometry" />
        </mxCell>
        <mxCell id="1ea317790d2ca983-5" value="ANALYZE DATA" style="ellipse;whiteSpace=wrap;html=1;rounded=0;shadow=0;comic=0;labelBackgroundColor=none;strokeWidth=1;fontFamily=Times New Roman;fontSize=12;align=center;fontStyle=1" parent="1" vertex="1">
          <mxGeometry x="407.5" y="370" width="75" height="50" as="geometry" />
        </mxCell>
        <mxCell id="YL1zyzh9gBuxgRDL5kGR-27" style="edgeStyle=orthogonalEdgeStyle;rounded=0;orthogonalLoop=1;jettySize=auto;html=1;exitX=0.5;exitY=1;exitDx=0;exitDy=0;entryX=1;entryY=0.5;entryDx=0;entryDy=0;dashed=1;strokeColor=default;" edge="1" parent="1" source="1ea317790d2ca983-6" target="1ea317790d2ca983-8">
          <mxGeometry relative="1" as="geometry" />
        </mxCell>
        <mxCell id="1ea317790d2ca983-6" value="DELIVER DATA" style="ellipse;whiteSpace=wrap;html=1;rounded=0;shadow=0;comic=0;labelBackgroundColor=none;strokeWidth=1;fontFamily=Times New Roman;fontSize=12;align=center;fontStyle=1" parent="1" vertex="1">
          <mxGeometry x="580" y="195" width="75" height="50" as="geometry" />
        </mxCell>
        <mxCell id="YL1zyzh9gBuxgRDL5kGR-23" style="edgeStyle=orthogonalEdgeStyle;rounded=0;orthogonalLoop=1;jettySize=auto;html=1;exitX=1;exitY=0.5;exitDx=0;exitDy=0;entryX=0;entryY=0.5;entryDx=0;entryDy=0;strokeColor=default;" edge="1" parent="1" source="1ea317790d2ca983-7" target="1ea317790d2ca983-6">
          <mxGeometry relative="1" as="geometry" />
        </mxCell>
        <mxCell id="1ea317790d2ca983-7" value="STORE DATA" style="ellipse;whiteSpace=wrap;html=1;rounded=0;shadow=0;comic=0;labelBackgroundColor=none;strokeWidth=1;fontFamily=Times New Roman;fontSize=12;align=center;fontStyle=1" parent="1" vertex="1">
          <mxGeometry x="482.5" y="195" width="75" height="50" as="geometry" />
        </mxCell>
        <mxCell id="YL1zyzh9gBuxgRDL5kGR-42" style="edgeStyle=orthogonalEdgeStyle;rounded=0;orthogonalLoop=1;jettySize=auto;html=1;exitX=0.5;exitY=1;exitDx=0;exitDy=0;entryX=1;entryY=0.5;entryDx=0;entryDy=0;dashed=1;strokeColor=default;" edge="1" parent="1" source="1ea317790d2ca983-8" target="1ea317790d2ca983-5">
          <mxGeometry relative="1" as="geometry" />
        </mxCell>
        <mxCell id="1ea317790d2ca983-8" value="RECEIVE DATA" style="ellipse;whiteSpace=wrap;html=1;rounded=0;shadow=0;comic=0;labelBackgroundColor=none;strokeWidth=1;fontFamily=Times New Roman;fontSize=12;align=center;fontStyle=1" parent="1" vertex="1">
          <mxGeometry x="482.5" y="285" width="75" height="50" as="geometry" />
        </mxCell>
        <mxCell id="YL1zyzh9gBuxgRDL5kGR-41" style="edgeStyle=orthogonalEdgeStyle;rounded=0;orthogonalLoop=1;jettySize=auto;html=1;exitX=0.5;exitY=0.5;exitDx=0;exitDy=0;exitPerimeter=0;entryX=0;entryY=0.5;entryDx=0;entryDy=0;strokeColor=default;" edge="1" parent="1" source="YL1zyzh9gBuxgRDL5kGR-6" target="1ea317790d2ca983-2">
          <mxGeometry relative="1" as="geometry" />
        </mxCell>
        <mxCell id="YL1zyzh9gBuxgRDL5kGR-6" value="TECHNICIAN" style="shape=umlActor;verticalLabelPosition=bottom;verticalAlign=top;html=1;outlineConnect=0;fontFamily=Times New Roman;fontStyle=3;gradientColor=#FFFFFF;fillColor=#FFFFFF;strokeColor=default;" vertex="1" parent="1">
          <mxGeometry x="270" y="190" width="30" height="60" as="geometry" />
        </mxCell>
        <mxCell id="YL1zyzh9gBuxgRDL5kGR-40" style="edgeStyle=orthogonalEdgeStyle;rounded=0;orthogonalLoop=1;jettySize=auto;html=1;exitX=0.5;exitY=0.5;exitDx=0;exitDy=0;exitPerimeter=0;entryX=0;entryY=0.5;entryDx=0;entryDy=0;strokeColor=default;" edge="1" parent="1" source="YL1zyzh9gBuxgRDL5kGR-7" target="1ea317790d2ca983-8">
          <mxGeometry relative="1" as="geometry" />
        </mxCell>
        <mxCell id="YL1zyzh9gBuxgRDL5kGR-46" style="edgeStyle=orthogonalEdgeStyle;rounded=0;orthogonalLoop=1;jettySize=auto;html=1;exitX=0.5;exitY=0.5;exitDx=0;exitDy=0;exitPerimeter=0;entryX=0;entryY=0.5;entryDx=0;entryDy=0;" edge="1" parent="1" source="YL1zyzh9gBuxgRDL5kGR-7" target="1ea317790d2ca983-5">
          <mxGeometry relative="1" as="geometry">
            <Array as="points">
              <mxPoint x="320" y="310" />
              <mxPoint x="320" y="395" />
            </Array>
          </mxGeometry>
        </mxCell>
        <mxCell id="YL1zyzh9gBuxgRDL5kGR-7" value="NYSDEC" style="shape=umlActor;verticalLabelPosition=bottom;verticalAlign=top;html=1;outlineConnect=0;fontStyle=3;fontFamily=Times New Roman;gradientColor=#FFFFFF;fillColor=#FFFFFF;strokeColor=default;" vertex="1" parent="1">
          <mxGeometry x="270" y="280" width="30" height="60" as="geometry" />
        </mxCell>
        <mxCell id="YL1zyzh9gBuxgRDL5kGR-45" value="MICROCLIMATE MONITORING SYSTEM" style="text;html=1;align=center;verticalAlign=middle;whiteSpace=wrap;rounded=0;fontStyle=3;fontFamily=Times New Roman;" vertex="1" parent="1">
          <mxGeometry x="240" y="140" width="480" height="20" as="geometry" />
        </mxCell>
      </root>
    </mxGraphModel>
  </diagram>
</mxfile>
